<?xml version="1.0" encoding="UTF-8" standalone="no"?>
<!DOCTYPE svg PUBLIC "-//W3C//DTD SVG 1.1//EN" "http://www.w3.org/Graphics/SVG/1.1/DTD/svg11.dtd">
<svg width="100%" height="100%" viewBox="0 0 802 692" version="1.1" xmlns="http://www.w3.org/2000/svg" xmlns:xlink="http://www.w3.org/1999/xlink" xml:space="preserve" xmlns:serif="http://www.serif.com/" style="fill-rule:evenodd;clip-rule:evenodd;stroke-linejoin:round;stroke-miterlimit:2;">
    <g transform="matrix(1,0,0,1,-201.117,-254.471)">
        <g transform="matrix(8.35974,0,0,8.35974,-601.72,28.758)">
            <path d="M191.964,109.665C191.964,109.665 190.495,109.094 187.951,108.023C186.693,107.436 185.099,106.974 183.325,106.312C181.562,105.623 179.498,105.074 177.277,104.402C176.722,104.236 176.156,104.066 175.578,103.895C174.991,103.758 174.393,103.619 173.787,103.479C172.577,103.186 171.326,102.883 170.041,102.572C168.752,102.279 167.41,102.086 166.051,101.828C164.688,101.593 163.307,101.287 161.877,101.147C160.457,100.963 159.011,100.771 157.548,100.58C156.083,100.425 154.592,100.353 153.095,100.219C152.347,100.159 151.596,100.099 150.841,100.037C150.087,100.001 149.329,100.002 148.569,99.976C147.05,99.936 145.526,99.895 144,99.854C142.47,99.895 140.94,99.936 139.416,99.978C138.648,100.003 137.875,100.006 137.118,100.043C136.369,100.104 135.623,100.163 134.88,100.223C133.391,100.357 131.915,100.431 130.453,100.585C128.991,100.777 127.546,100.967 126.125,101.152C124.695,101.291 123.314,101.6 121.953,101.834C120.592,102.091 119.25,102.285 117.961,102.577C116.676,102.888 115.425,103.191 114.215,103.484C113.609,103.625 113.012,103.764 112.425,103.9C111.847,104.072 111.281,104.24 110.726,104.406C108.505,105.078 106.442,105.628 104.671,106.318C102.891,106.98 101.294,107.445 100.046,108.027C97.513,109.09 96.036,109.665 96.036,109.665C96.036,109.665 97.382,108.797 99.788,107.338C100.975,106.563 102.5,105.842 104.236,104.963C104.672,104.745 105.121,104.52 105.584,104.288C105.816,104.172 106.051,104.055 106.289,103.936C106.531,103.832 106.778,103.729 107.027,103.622C108.033,103.211 109.086,102.78 110.188,102.329C110.741,102.104 111.304,101.877 111.878,101.643C112.462,101.445 113.057,101.244 113.662,101.04C114.877,100.648 116.135,100.242 117.428,99.827C118.728,99.438 120.082,99.138 121.458,98.777C122.835,98.423 124.247,98.069 125.699,97.842C127.149,97.592 128.623,97.335 130.117,97.078C131.618,96.858 133.155,96.733 134.699,96.569C135.47,96.491 136.247,96.413 137.024,96.334C137.795,96.276 138.56,96.27 139.33,96.238C140.882,96.186 142.442,96.133 144,96.082C145.565,96.135 147.129,96.187 148.688,96.24C149.466,96.27 150.246,96.282 151.019,96.34C151.791,96.418 152.562,96.497 153.329,96.575C154.862,96.738 156.387,96.864 157.885,97.082C159.377,97.34 160.852,97.596 162.302,97.848C163.754,98.072 165.164,98.43 166.542,98.784C167.918,99.143 169.273,99.442 170.573,99.832C171.864,100.248 173.122,100.653 174.338,101.045C174.944,101.249 175.539,101.45 176.123,101.648C176.697,101.881 177.26,102.109 177.812,102.334C178.914,102.785 179.968,103.216 180.971,103.627C181.222,103.732 181.469,103.837 181.712,103.94C181.95,104.06 182.186,104.177 182.418,104.293C182.883,104.525 183.333,104.751 183.77,104.969C185.511,105.848 187.041,106.574 188.216,107.343C190.611,108.795 191.964,109.665 191.964,109.665Z" style="fill:rgb(108,164,165);fill-rule:nonzero;"/>
            <path d="M129.776,71.405L129.776,32.604L121.304,36.026L121.304,67.973L122.109,68.304L129.776,71.405Z" style="fill:rgb(108,164,165);fill-rule:nonzero;"/>
            <path d="M137.255,74.425L137.255,98.498C139.336,98.36 141.43,98.281 143.538,98.267L143.538,59.332L145.772,58.43L152.929,55.534L154.091,55.061L154.466,54.909L157.845,53.541L164.627,50.797L165.951,50.271L165.951,36.026L143.626,27L133.797,30.977L133.797,73.032L135.021,73.523L137.255,74.425Z" style="fill:rgb(108,164,165);fill-rule:nonzero;"/>
            <path d="M154.091,98.731L154.091,58.92L147.113,61.745L147.113,98.299C149.458,98.364 151.783,98.512 154.091,98.731Z" style="fill:rgb(108,164,165);fill-rule:nonzero;"/>
            <path d="M184.742,106.39L184.823,106.39L184.823,61.745L165.967,54.114L165.951,54.122L157.845,57.402L157.845,99.146C167.216,100.372 176.239,102.85 184.742,106.39Z" style="fill:rgb(108,164,165);fill-rule:nonzero;"/>
            <path d="M111.501,103.494L111.501,75.364L107.846,76.838L107.846,104.761C109.054,104.315 110.274,103.896 111.501,103.494Z" style="fill:rgb(108,164,165);fill-rule:nonzero;"/>
            <path d="M133.681,98.791L133.681,76.838L129.776,75.256L121.304,71.825L120.768,71.611L115.076,73.916L115.076,102.385C121.091,100.647 127.312,99.434 133.681,98.791Z" style="fill:rgb(108,164,165);fill-rule:nonzero;"/>
        </g>
    </g>
</svg>
